HIERARCHY
ROOT Hips
{
	OFFSET 0.000000 0.000000 0.000000
	CHANNELS 6 Xposition Yposition Zposition Zrotation Yrotation Xrotation 
	JOINT LHipJoint
	{
		OFFSET 0.000000 0.000000 0.000000
		CHANNELS 3 Zrotation Yrotation Xrotation
		JOINT LeftUpLeg
		{
			OFFSET 1.363060 -1.794630 0.839290
			CHANNELS 3 Zrotation Yrotation Xrotation
			JOINT LeftLeg
			{
				OFFSET 2.448110 -6.726130 0.000000
				CHANNELS 3 Zrotation Yrotation Xrotation
				JOINT LeftFoot
				{
					OFFSET 2.562200 -7.039590 0.000000
					CHANNELS 3 Zrotation Yrotation Xrotation
					JOINT LeftToeBase
					{
						OFFSET 0.157640 -0.433110 2.322550
						CHANNELS 3 Zrotation Yrotation Xrotation
						End Site
						{
							OFFSET 0.000000 0.000000 0.000000
						}
					}
				}
			}
		}
	}
	JOINT RHipJoint
	{
		OFFSET 0.000000 0.000000 0.000000
		CHANNELS 3 Zrotation Yrotation Xrotation
		JOINT RightUpLeg
		{
			OFFSET -1.305520 -1.794630 0.839290
			CHANNELS 3 Zrotation Yrotation Xrotation
			JOINT RightLeg
			{
				OFFSET -2.542530 -6.985550 0.000000
				CHANNELS 3 Zrotation Yrotation Xrotation
				JOINT RightFoot
				{
					OFFSET -2.568260 -7.056230 0.000000
					CHANNELS 3 Zrotation Yrotation Xrotation
					JOINT RightToeBase
					{
						OFFSET -0.164730 -0.452590 2.363150
						CHANNELS 3 Zrotation Yrotation Xrotation
						End Site
						{
							OFFSET 0.000000 0.000000 0.000000
						}
					}
				}
			}
		}
	}
	JOINT LowerBack
	{
		OFFSET 0.000000 0.000000 0.000000
		CHANNELS 3 Zrotation Yrotation Xrotation
		JOINT Spine
		{
			OFFSET 0.028270 2.035590 -0.193380
			CHANNELS 3 Zrotation Yrotation Xrotation
			JOINT Spine1
			{
				OFFSET 0.056720 2.048850 -0.042750
				CHANNELS 3 Zrotation Yrotation Xrotation
				JOINT Neck
				{
					OFFSET 0.000000 0.000000 0.000000
					CHANNELS 3 Zrotation Yrotation Xrotation
					JOINT Neck1
					{
						OFFSET -0.054170 1.746240 0.172020
						CHANNELS 3 Zrotation Yrotation Xrotation
						JOINT Head
						{
							OFFSET 0.104070 1.761360 -0.123970
							CHANNELS 3 Zrotation Yrotation Xrotation
							End Site
							{
								OFFSET 0.000000 0.000000 0.000000
							}
						}
					}
				}
				JOINT LeftShoulder
				{
					OFFSET 0.000000 0.000000 0.000000
					CHANNELS 3 Zrotation Yrotation Xrotation
					JOINT LeftArm
					{
						OFFSET 3.362410 1.200890 -0.311210
						CHANNELS 3 Zrotation Yrotation Xrotation
						JOINT LeftForeArm
						{
							OFFSET 4.983000 -0.000000 -0.000000
							CHANNELS 3 Zrotation Yrotation Xrotation
							JOINT LeftHand
							{
								OFFSET 3.483560 -0.000000 -0.000000
								CHANNELS 3 Zrotation Yrotation Xrotation
								JOINT LeftFingerBase
								{
									OFFSET 0.000000 0.000000 0.000000
									CHANNELS 3 Zrotation Yrotation Xrotation
									JOINT LeftHandIndex1
									{
										OFFSET 0.715260 -0.000000 -0.000000
										CHANNELS 3 Zrotation Yrotation Xrotation
										End Site
										{
											OFFSET 0.000000 0.000000 0.000000
										}
									}
								}
								JOINT LThumb
								{
									OFFSET 0.000000 0.000000 0.000000
									CHANNELS 3 Zrotation Yrotation Xrotation
									End Site
									{
										OFFSET 0.000000 0.000000 0.000000
									}
								}
							}
						}
					}
				}
				JOINT RightShoulder
				{
					OFFSET 0.000000 0.000000 0.000000
					CHANNELS 3 Zrotation Yrotation Xrotation
					JOINT RightArm
					{
						OFFSET -3.136600 1.374050 -0.404650
						CHANNELS 3 Zrotation Yrotation Xrotation
						JOINT RightForeArm
						{
							OFFSET -5.241900 -0.000000 -0.000000
							CHANNELS 3 Zrotation Yrotation Xrotation
							JOINT RightHand
							{
								OFFSET -3.444170 -0.000000 -0.000000
								CHANNELS 3 Zrotation Yrotation Xrotation
								JOINT RightFingerBase
								{
									OFFSET 0.000000 0.000000 0.000000
									CHANNELS 3 Zrotation Yrotation Xrotation
									JOINT RightHandIndex1
									{
										OFFSET -0.622530 -0.000000 -0.000000
										CHANNELS 3 Zrotation Yrotation Xrotation
										End Site
										{
											OFFSET 0.000000 0.000000 0.000000
										}
									}
								}
								JOINT RThumb
								{
									OFFSET 0.000000 0.000000 0.000000
									CHANNELS 3 Zrotation Yrotation Xrotation
									End Site
									{
										OFFSET 0.000000 0.000000 0.000000
									}
								}
							}
						}
					}
				}
			}
		}
	}
}
MOTION
Frames: 11
Frame Time: 0.008333
-6.880074 18.226037 -1.200918 177.444350 38.579458 -174.829705 -3.764741 0.001704 0.918498 -14.888123 -9.405714 -13.347304 -2.147845 1.364153 5.974923 1.573038 -27.405837 32.546961 0.718500 5.416600 15.100700 4.753300 1.036487 1.292595 -0.652928 -2.752217 -5.946232 -3.406986 -12.673305 33.825306 3.989122 -24.464467 4.402031 -0.044500 -1.361500 3.744000 2.045967 0.185312 -6.794206 19.910957 2.135680 1.253771 12.022811 1.886321 4.332306 -6.689549 -18.260078 1.480004 -1.752162 -23.607915 16.769316 -2.707200 -10.456300 7.660400 0.103897 5.240115 -1.970039 -108.154031 -31.352481 77.971500 11.609622 -20.788599 -0.762446 -0.269197 1.226952 -42.838427 4.616896 66.329038 3.594200 -7.125000 0.000000 0.000000 163.173400 6.254400 15.598300 -0.707102 -4.650597 -1.540621 104.798118 34.525552 61.082421 -11.046328 21.633626 -1.938876 -0.379937 -0.603562 -43.942713 -14.372875 -15.953552 3.798200 7.125000 0.000000 0.000000 13.140700 -45.823000 -0.271600 
-6.865414 18.223627 -1.249015 178.268744 37.028228 -174.428212 -3.727645 -0.038014 0.829098 -14.351135 -10.020943 -13.572964 -2.126448 1.765127 7.049481 1.602799 -27.764286 33.384088 0.963100 6.248500 17.507200 4.809402 1.055857 1.326594 0.100849 -3.073858 -5.194724 -3.332117 -12.595532 33.480106 4.009571 -24.794406 4.776739 -0.101200 -2.051900 5.649100 2.460849 0.438921 -6.551750 20.477044 2.811910 0.412157 12.196518 2.292348 3.638362 -6.978290 -18.983183 2.024845 -1.681969 -24.587419 16.807383 -2.657200 -10.873600 7.619200 0.112945 5.280211 -1.951496 -108.259830 -31.820409 74.590255 12.084742 -21.556646 -0.941470 -0.276466 1.260486 -44.736701 8.145856 65.195381 6.701700 -7.125000 0.000000 0.000000 164.224000 5.281600 14.843600 -0.724638 -4.635651 -1.569192 106.365506 36.243578 65.921576 -10.771033 21.254108 -1.859355 -0.334203 -0.635395 -40.266898 -11.262176 -16.951160 3.080100 7.125000 0.000000 0.000000 16.231600 -46.309900 -0.538700 
-6.854269 18.215895 -1.291890 178.871129 35.569782 -174.272892 -3.696514 -0.059584 0.766204 -14.007844 -10.523926 -13.663749 -2.099384 2.105918 7.972323 1.582886 -28.278108 34.165283 1.138200 6.775200 19.051000 4.849209 1.063932 1.364084 0.681174 -3.319952 -4.394541 -3.262552 -12.525501 33.161243 4.030745 -25.098038 5.072924 -0.166900 -2.632000 7.255900 3.054593 0.815863 -6.250563 20.682481 3.555887 -0.227894 11.956207 2.710450 2.998959 -7.176608 -19.794853 2.307928 -1.345792 -25.661500 16.932911 -2.578600 -11.304400 7.671200 0.124160 5.337712 -1.951789 -107.966575 -32.528602 72.006857 12.866425 -22.825430 -1.254122 -0.311927 1.272350 -47.244576 10.103379 64.378694 8.390600 -7.125000 0.000000 0.000000 164.856700 4.593100 14.404800 -0.701962 -4.581728 -1.610774 108.274681 38.156794 70.720557 -10.673716 21.149786 -1.862667 -0.274983 -0.612281 -36.230488 -8.305422 -15.978863 2.097000 7.125000 0.000000 0.000000 18.439100 -44.952000 0.022600 
-6.839910 18.206858 -1.341293 179.187088 34.256096 -174.297717 -3.672012 -0.067791 0.724282 -13.945454 -10.883327 -13.667635 -2.070713 2.395936 8.766375 1.553572 -28.744094 34.928601 1.265000 7.129200 20.098800 4.870249 1.059899 1.402001 0.969468 -3.640029 -3.653438 -3.216013 -12.464531 32.868075 3.903368 -25.186198 6.343040 -0.111200 -2.150500 5.921800 3.579773 1.266716 -6.069526 20.640314 4.305827 -0.702552 11.563445 3.108313 2.517801 -7.195567 -20.580956 2.403113 -0.917206 -26.714878 16.975444 -2.508300 -11.721500 7.720500 0.132894 5.375347 -1.968467 -107.694623 -33.446564 69.359231 13.640323 -24.158491 -1.619550 -0.203270 1.509069 -48.832917 41.945069 59.407575 36.738200 -7.125000 0.000000 0.000000 175.118300 6.013900 4.359600 -0.658574 -4.507826 -1.672421 110.198360 40.061517 75.511214 -10.934873 21.584727 -1.981174 -0.211682 -0.578384 -32.303335 -6.072805 -14.540320 1.371600 7.125000 0.000000 0.000000 19.792300 -43.299900 0.866800 
-6.823844 18.202139 -1.390695 179.553329 33.012290 -174.251722 -3.645765 -0.077977 0.688063 -13.805871 -11.157925 -13.689419 -2.041214 2.638586 9.431025 1.482477 -29.339747 35.526716 1.309700 7.249200 20.455800 4.895020 1.055610 1.434221 1.326256 -3.920635 -3.000374 -3.176085 -12.407924 32.596234 3.744474 -25.254613 7.759232 -0.056400 -1.532100 4.214100 4.181445 1.763844 -5.877803 20.525175 5.103309 -1.173176 11.073260 3.527776 2.050767 -6.976325 -21.309852 2.493000 -0.545596 -27.733474 16.840002 -2.464600 -12.133200 7.675700 0.141700 5.386263 -1.971932 -107.289052 -34.415905 67.035735 14.652370 -25.687266 -2.066518 -0.249186 1.380007 -50.044343 21.203590 60.102674 17.674800 -7.125000 0.000000 0.000000 168.841000 1.604200 11.055800 -0.613690 -4.448519 -1.754055 112.171903 41.877893 79.521482 -11.405439 22.306128 -2.161564 -0.145142 -0.550905 -27.910873 -4.037734 -13.171039 0.807300 7.125000 0.000000 0.000000 20.969600 -41.773400 1.755000 
-6.813000 18.199829 -1.434173 -179.875399 31.913391 -174.079780 -3.610206 -0.092470 0.660320 -13.459868 -11.291662 -13.797660 -2.006550 2.856534 10.018195 1.323958 -30.206407 35.804567 1.255000 7.102000 20.017900 4.931392 1.058979 1.459726 1.884636 -3.993353 -2.420099 -3.131438 -12.352439 32.349957 3.697813 -25.487175 8.452416 -0.068900 -1.693100 4.658300 4.892944 2.264885 -5.636094 20.511381 5.914091 -1.522895 10.621889 3.967715 1.635487 -6.800224 -21.980715 2.477344 -0.069662 -28.676063 16.554977 -2.392500 -12.530100 7.619500 0.153904 5.386494 -1.987964 -106.869043 -35.515547 64.928820 15.867360 -27.523917 -2.668036 -0.264703 1.342553 -51.659920 17.299351 58.735928 14.021400 -7.125000 0.000000 0.000000 12.195900 -2.848500 -168.149800 -0.574471 -4.375541 -1.846346 114.184642 43.723906 82.871450 -11.933042 23.070946 -2.357881 -0.069218 -0.521519 -22.728436 -1.936140 -11.376068 0.316600 7.125000 0.000000 0.000000 22.030000 -39.886200 2.943300 
-6.809385 18.195411 -1.481467 -179.413376 30.942302 -173.883678 -3.573606 -0.109404 0.623469 -13.195840 -11.472699 -13.946209 -1.966440 3.067737 10.581709 1.128885 -31.063439 35.871637 1.194300 6.934300 19.521000 4.961691 1.061288 1.482885 2.278376 -4.083479 -2.015273 -3.090778 -12.296606 32.124149 3.668134 -25.683604 8.955414 -0.113600 -2.172600 5.982900 5.510498 2.736140 -5.432890 20.503625 6.677036 -1.826604 10.244997 4.382144 1.276506 -6.720427 -22.517695 2.485891 0.587763 -29.441996 16.038546 -2.245500 -12.874600 7.527500 0.170173 5.370883 -2.013416 -106.578732 -36.664341 62.606749 17.102679 -29.335819 -3.317848 -0.209642 1.367226 -52.699810 21.330858 56.147444 17.026500 -7.125000 0.000000 0.000000 10.376500 -4.073500 -170.222100 -0.538434 -4.286914 -1.947100 115.811392 45.596876 87.714375 -12.868848 24.382138 -2.696683 -0.019518 -0.494372 -20.517881 -1.501202 -9.988905 0.216900 7.125000 0.000000 0.000000 21.896200 -38.567700 3.680600 
-6.809786 18.192098 -1.530969 -179.030261 30.078893 -173.630122 -3.545625 -0.141409 0.582626 -12.986191 -11.580845 -14.184945 -1.946198 3.253698 11.090101 1.165320 -31.229314 36.582287 1.344800 7.342000 20.732800 4.989956 1.064731 1.499121 2.567853 -4.185527 -1.769572 -3.057555 -12.238685 31.900539 3.591753 -25.841394 9.764446 -0.133300 -2.352900 6.482000 6.099649 3.226722 -5.203171 20.415996 7.465515 -2.195312 9.818729 4.797702 0.889023 -6.459569 -22.969058 2.456939 1.120154 -30.096756 15.530466 -2.143500 -13.168900 7.405400 0.184767 5.342204 -2.028563 -106.076013 -37.762178 60.656265 18.404526 -31.193674 -4.063838 -0.129689 1.364833 -53.064729 22.278503 52.935222 17.144100 -7.125000 0.000000 0.000000 9.455800 -6.705400 -171.594900 -0.500176 -4.214652 -2.044526 117.480749 47.400149 92.248580 -13.855777 25.699777 -3.063473 0.045643 -0.463296 -18.275220 -0.781051 -7.937871 0.088400 7.125000 0.000000 0.000000 21.812300 -36.619300 4.779600 
-6.808983 18.192499 -1.581175 -178.690212 29.228181 -173.354094 -3.527853 -0.176224 0.542795 -12.798538 -11.714527 -14.424938 -1.944602 3.400891 11.503960 1.413218 -30.742795 37.700645 1.627600 8.043000 22.844600 5.019844 1.068142 1.514657 2.819727 -4.365725 -1.607332 -3.030273 -12.179946 31.675846 3.477419 -26.014220 10.846057 -0.133200 -2.352700 6.481500 6.598640 3.706354 -5.027021 20.299732 8.228255 -2.551067 9.437385 5.193805 0.556595 -5.955202 -23.349764 2.225903 1.552751 -30.653614 15.061792 -2.102100 -13.409400 7.280600 0.194513 5.305983 -2.049110 -105.287676 -38.897399 59.396116 19.862779 -33.193722 -4.948516 -0.036138 1.346783 -53.069469 22.562667 49.381668 16.549900 -7.125000 0.000000 0.000000 8.737800 -9.885300 -172.805500 -0.462087 -4.156833 -2.114110 119.329921 48.978385 95.848235 -14.958197 27.097360 -3.482787 0.099909 -0.425932 -15.674667 -0.580891 -5.694783 0.051500 7.125000 0.000000 0.000000 21.317000 -34.541800 5.814700 
-6.804665 18.191897 -1.636502 -178.497578 28.322466 -173.174216 -3.508226 -0.198622 0.501105 -12.780957 -11.873990 -14.553396 -1.928386 3.522940 11.840591 1.406487 -30.980425 38.213404 1.634000 8.058000 22.890300 5.038861 1.063467 1.532120 2.922635 -4.713331 -1.420808 -3.002010 -12.126130 31.458516 3.382072 -26.208506 11.758398 -0.179100 -2.726200 7.517500 6.879733 4.234678 -4.864081 20.045954 9.067988 -3.076420 9.043292 5.601784 0.158231 -5.155802 -23.714258 2.322822 2.133574 -31.209931 14.315673 -1.984600 -13.648900 6.999800 0.195838 5.258222 -2.063743 -104.488014 -39.870354 58.774604 21.375155 -35.160226 -5.913148 0.058160 1.311326 -52.854006 22.629629 45.781097 15.707100 -7.125000 0.000000 0.000000 8.139500 -13.225000 -173.875000 -0.420049 -4.141309 -2.139648 121.436096 50.210300 97.894270 -15.977581 28.303858 -3.874901 0.133659 -0.399946 -12.094717 -0.587068 -4.071228 0.040400 7.125000 0.000000 0.000000 20.873300 -33.047500 6.489300 
-6.799344 18.194006 -1.690824 -178.245745 27.351540 -172.929042 -3.489715 -0.226100 0.455759 -12.681266 -11.991134 -14.685722 -1.917655 3.605219 12.064279 1.328785 -31.506025 38.697074 1.487000 7.704100 21.818900 5.062349 1.062584 1.537899 3.149634 -5.025679 -1.269747 -2.975444 -12.077041 31.251173 3.356558 -26.626823 12.458338 -0.249800 -3.216300 8.881500 7.219338 4.744385 -4.562453 19.688296 9.937811 -3.832299 8.503637 6.002672 -0.397029 -4.288980 -24.047093 2.618482 2.667820 -31.701086 13.614039 -1.853300 -13.850500 6.688700 0.199355 5.215378 -2.075986 -103.659769 -40.651125 57.919600 22.980094 -37.090716 -6.927575 0.095251 1.277670 -52.797204 22.044947 43.831452 14.772100 -7.125000 0.000000 0.000000 8.134500 -15.240500 -174.230600 -0.368467 -4.150469 -2.119818 123.761370 51.136129 99.429326 -16.923598 29.361343 -4.242801 0.161504 -0.384495 -8.439873 -0.422732 -2.694779 0.021000 7.125000 0.000000 0.000000 20.649000 -31.769500 7.093800 
